<?xml version="1.0" encoding="UTF-8"?>
<svg version="1.1" xmlns="http://www.w3.org/2000/svg" width="512" height="487">
<path d="M0 0 C3.78261446 -0.00434146 7.56402885 -0.04066848 11.34643555 -0.07861328 C35.87139213 -0.19240751 59.02271291 3.417864 82.51635742 10.37060547 C83.70600098 10.72227783 83.70600098 10.72227783 84.91967773 11.08105469 C101.47523619 16.07875949 117.63834492 22.66436083 132.48510742 31.56201172 C135.16243381 33.15943713 137.86333114 34.58515694 140.64135742 35.99560547 C155.17001193 43.89301294 168.24646252 54.36717425 180.51635742 65.37060547 C181.97349408 66.62200024 183.43163257 67.87223074 184.89135742 69.12060547 C188.92507057 72.67411467 192.99804241 76.30021443 196.51635742 80.37060547 C196.51635742 81.03060547 196.51635742 81.69060547 196.51635742 82.37060547 C197.17635742 82.37060547 197.83635742 82.37060547 198.51635742 82.37060547 C200.10169445 84.083933 201.61176957 85.86749594 203.07885742 87.68310547 C204.28735352 89.16230469 204.28735352 89.16230469 205.52026367 90.67138672 C207.51635742 93.37060547 207.51635742 93.37060547 208.51635742 96.37060547 C209.17635742 96.37060547 209.83635742 96.37060547 210.51635742 96.37060547 C211.88574219 97.96850586 211.88574219 97.96850586 213.45776367 100.21826172 C214.03695557 101.04334229 214.61614746 101.86842285 215.21289062 102.71850586 C215.82865967 103.61432373 216.44442871 104.5101416 217.07885742 105.43310547 C217.71073975 106.34761475 218.34262207 107.26212402 218.99365234 108.2043457 C234.30870308 130.54669291 245.66271644 154.45288218 253.20385742 180.49560547 C253.4772998 181.41680176 253.75074219 182.33799805 254.0324707 183.28710938 C259.27172994 202.11361976 261.18520162 221.01283165 261.0378418 240.50683594 C261.01636314 243.86971062 261.03781213 247.23045007 261.06323242 250.59326172 C261.08847491 269.70730693 258.77689878 288.42338139 253.39135742 306.80810547 C253.09914307 307.82340332 252.80692871 308.83870117 252.50585938 309.88476562 C245.97993966 331.79044505 236.68976801 352.97559892 224.04760742 372.05810547 C222.52772353 374.35344033 221.11518442 376.69495329 219.70385742 379.05810547 C218.62104492 380.69779297 218.62104492 380.69779297 217.51635742 382.37060547 C216.85635742 382.37060547 216.19635742 382.37060547 215.51635742 382.37060547 C215.30881836 383.04994141 215.1012793 383.72927734 214.88745117 384.42919922 C213.05631631 388.35753127 210.44739054 391.21666464 207.57885742 394.43310547 C206.50618449 395.65222716 205.43453993 396.87225458 204.36401367 398.09326172 C203.86401855 398.65932129 203.36402344 399.22538086 202.84887695 399.80859375 C201.39195444 401.47335683 201.39195444 401.47335683 199.76245117 403.80419922 C199.35124023 404.32111328 198.9400293 404.83802734 198.51635742 405.37060547 C197.85635742 405.37060547 197.19635742 405.37060547 196.51635742 405.37060547 C196.25854492 405.95326172 196.00073242 406.53591797 195.73510742 407.13623047 C194.41801726 409.55089577 192.96547358 411.18800724 191.01635742 413.12060547 C190.40791992 413.73419922 189.79948242 414.34779297 189.17260742 414.97998047 C187.51635742 416.37060547 187.51635742 416.37060547 185.51635742 416.37060547 C185.51635742 417.03060547 185.51635742 417.69060547 185.51635742 418.37060547 C183.97729492 419.92138672 183.97729492 419.92138672 181.89135742 421.68310547 C181.16432617 422.29927734 180.43729492 422.91544922 179.68823242 423.55029297 C178.97151367 424.15099609 178.25479492 424.75169922 177.51635742 425.37060547 C176.92338867 425.88880859 176.33041992 426.40701172 175.71948242 426.94091797 C171.76064314 430.37060547 171.76064314 430.37060547 169.51635742 430.37060547 C169.51635742 431.03060547 169.51635742 431.69060547 169.51635742 432.37060547 C138.9021517 458.75304194 97.60634216 475.49048195 58.45385742 483.55810547 C57.71208252 483.71303467 56.97030762 483.86796387 56.20605469 484.02758789 C39.24752744 487.35268284 22.44166411 487.77627166 5.20385742 487.74560547 C4.00393158 487.74472931 2.80400574 487.74385315 1.56771851 487.74295044 C-16.12071514 487.70030353 -33.16139371 487.24316086 -50.48364258 483.37060547 C-51.57918457 483.1345459 -52.67472656 482.89848633 -53.8034668 482.65527344 C-88.34493245 475.02041335 -120.5085709 460.54823198 -149.48364258 440.37060547 C-150.53293945 439.64357422 -151.58223633 438.91654297 -152.66333008 438.16748047 C-158.46426791 434.06401808 -158.46426791 434.06401808 -160.48364258 432.37060547 C-160.48364258 431.71060547 -160.48364258 431.05060547 -160.48364258 430.37060547 C-161.03536133 430.12310547 -161.58708008 429.87560547 -162.15551758 429.62060547 C-164.93500965 428.12826073 -167.26511328 426.33388024 -169.73364258 424.37060547 C-170.62567383 423.66935547 -171.51770508 422.96810547 -172.43676758 422.24560547 C-173.11223633 421.62685547 -173.78770508 421.00810547 -174.48364258 420.37060547 C-174.48364258 419.71060547 -174.48364258 419.05060547 -174.48364258 418.37060547 C-175.34022461 418.00322266 -175.34022461 418.00322266 -176.21411133 417.62841797 C-194.67445257 407.39738548 -211.35397283 379.27420782 -221.48364258 361.37060547 C-222.07532227 360.34451172 -222.66700195 359.31841797 -223.27661133 358.26123047 C-236.12779369 335.4490784 -244.8519161 310.11559394 -249.48364258 284.37060547 C-249.66266113 283.38632568 -249.84167969 282.4020459 -250.02612305 281.38793945 C-251.84020092 269.80222475 -251.82127822 258.23526658 -251.79931641 246.52880859 C-251.79615516 243.00961332 -251.8196941 239.49126005 -251.8449707 235.97216797 C-251.88001784 223.38991156 -251.22840607 211.66327842 -248.48364258 199.37060547 C-248.19680391 197.91563344 -247.91434343 196.45979229 -247.63598633 195.00317383 C-243.96223387 175.91151055 -237.62339097 156.54725376 -228.48364258 139.37060547 C-228.07355957 138.59136719 -227.66347656 137.81212891 -227.2409668 137.00927734 C-217.46126611 118.52828621 -206.36804432 101.3882477 -191.97460938 86.15185547 C-189.42608017 83.48308566 -189.42608017 83.48308566 -187.48364258 80.37060547 C-186.82364258 80.37060547 -186.16364258 80.37060547 -185.48364258 80.37060547 C-185.24516602 79.80728516 -185.00668945 79.24396484 -184.76098633 78.66357422 C-180.09102519 70.28049412 -170.212973 62.92606171 -162.48364258 57.37060547 C-161.82364258 57.37060547 -161.16364258 57.37060547 -160.48364258 57.37060547 C-160.48364258 56.71060547 -160.48364258 56.05060547 -160.48364258 55.37060547 C-158.82226562 53.96948242 -158.82226562 53.96948242 -156.49536133 52.35888672 C-155.6490918 51.76914062 -154.80282227 51.17939453 -153.9309082 50.57177734 C-152.56482422 49.63688477 -152.56482422 49.63688477 -151.17114258 48.68310547 C-150.25139648 48.04824219 -149.33165039 47.41337891 -148.3840332 46.75927734 C-145.75724423 44.95301185 -143.12291489 43.15856802 -140.48364258 41.37060547 C-139.87858887 40.95987793 -139.27353516 40.54915039 -138.65014648 40.12597656 C-132.90532361 36.25739035 -126.99305058 32.98012916 -120.76098633 29.96435547 C-118.4203935 28.82614108 -116.10753305 27.66565916 -113.80004883 26.46435547 C-90.51405719 14.40140994 -65.35690581 6.58258821 -39.48364258 2.37060547 C-38.51676514 2.19400391 -37.5498877 2.01740234 -36.55371094 1.83544922 C-24.42894427 -0.12029913 -12.25255385 -0.00156712 0 0 Z M20.60620117 41.31201172 C19.96516953 41.51510452 19.32413788 41.71819733 18.66368103 41.92744446 C16.5906164 42.58664761 14.52236783 43.25976333 12.45385742 43.93310547 C11.0148727 44.39320959 9.5755792 44.85234908 8.13598633 45.31054688 C4.5768816 46.44555588 1.02131605 47.5911953 -2.53314209 48.74066162 C-6.32023053 49.96375953 -10.11160522 51.17341732 -13.90332031 52.38208008 C-15.62131136 52.93045426 -17.33838613 53.48171397 -19.05419922 54.03686523 C-23.76731215 55.55201935 -28.50173776 56.95785233 -33.26489258 58.30810547 C-40.16417001 60.26431154 -47.01440704 62.35572401 -53.85864258 64.49560547 C-55.07946533 64.87595947 -56.30028809 65.25631348 -57.55810547 65.64819336 C-60.16365276 66.46006995 -62.76885143 67.27305227 -65.3737793 68.08691406 C-68.93302955 69.19891891 -72.49292335 70.30884906 -76.05297852 71.41827393 C-78.96820626 72.32687358 -81.88321892 73.23616159 -84.79815674 74.14569092 C-86.20237671 74.58383597 -87.60663233 75.02186679 -89.01092529 75.45977783 C-90.97988835 76.07396981 -92.94859867 76.68896516 -94.91723633 77.30419922 C-96.60417603 77.83098267 -96.60417603 77.83098267 -98.32519531 78.3684082 C-101.38738976 79.34006378 -104.43585084 80.35467489 -107.48364258 81.37060547 C-107.48364258 95.23060547 -107.48364258 109.09060547 -107.48364258 123.37060547 C-105.50364258 124.36060547 -103.52364258 125.35060547 -101.48364258 126.37060547 C-100.60864258 129.55810547 -100.60864258 129.55810547 -100.48364258 132.37060547 C-99.48119507 132.12938965 -99.48119507 132.12938965 -98.45849609 131.88330078 C-87.3987108 129.2229561 -76.33927012 126.56286573 -65.26293945 123.97216797 C-57.28294123 122.09892895 -49.31948509 120.156944 -41.35351562 118.22509766 C-34.42404893 116.54905095 -27.48958637 114.89797148 -20.54614258 113.28076172 C-19.79541977 113.10558014 -19.04469696 112.93039856 -18.27122498 112.74990845 C-14.62564493 111.89942774 -10.97933394 111.05237254 -7.33154297 110.21142578 C0.35808699 108.42669507 7.96114804 106.45926241 15.53637695 104.23364258 C25.31204325 101.40249557 32.76811858 99.93558866 42.22338867 104.80810547 C42.94199066 105.16397232 43.66059265 105.51983917 44.40097046 105.88648987 C46.71650788 107.03579483 49.02238196 108.20323877 51.32885742 109.37060547 C54.49533335 110.94787063 57.66628043 112.51606907 60.83666992 114.08544922 C61.60442245 114.46724838 62.37217499 114.84904755 63.16319275 115.24241638 C68.61685149 117.94898452 74.11173291 120.52365364 79.70385742 122.93310547 C85.99814593 125.64994516 92.13443081 128.60142313 98.22021484 131.75952148 C101.910458 133.6557267 105.54616345 135.16493307 109.51635742 136.37060547 C109.65149034 134.60186567 109.74841328 132.83017492 109.82885742 131.05810547 C109.88686523 130.07197266 109.94487305 129.08583984 110.00463867 128.06982422 C109.84350586 127.17908203 109.68237305 126.28833984 109.51635742 125.37060547 C105.97723249 122.94081273 102.10866628 121.10234811 98.27416992 119.18310547 C97.67761597 118.88416885 97.08106201 118.58523224 96.46643066 118.27723694 C94.52590089 117.30601589 92.58374437 116.33810631 90.64135742 115.37060547 C89.9752948 115.03801727 89.30923218 114.70542908 88.62298584 114.36276245 C78.90892492 109.51329316 69.15292761 104.76110745 59.34423828 100.10546875 C51.34428793 96.30572684 43.41822881 92.36965811 35.51635742 88.37060547 C30.36152683 85.79319017 22.649121 88.78700432 17.37963867 90.14404297 C8.89711095 92.30193148 0.37774502 94.27971967 -8.15411377 96.23193359 C-12.474481 97.22090682 -16.79345816 98.2159184 -21.11254883 99.21044922 C-21.9487677 99.40291229 -22.78498657 99.59537537 -23.64654541 99.79367065 C-35.15978325 102.44510016 -46.65048937 105.18252388 -58.12442017 107.99911499 C-61.44945144 108.81507739 -64.77500937 109.62888491 -68.1005249 110.44287109 C-70.54480678 111.04244672 -72.98811725 111.64586552 -75.43139648 112.24951172 C-76.97220951 112.62727843 -78.51306084 113.00488892 -80.05395508 113.38232422 C-80.73977661 113.55297897 -81.42559814 113.72363373 -82.13220215 113.89945984 C-87.90257786 115.30643576 -93.60491844 116.30174653 -99.48364258 117.37060547 C-99.48364258 108.13060547 -99.48364258 98.89060547 -99.48364258 89.37060547 C-97.27676758 88.83435547 -95.06989258 88.29810547 -92.79614258 87.74560547 C-76.63684516 83.73096705 -60.73466871 78.86968469 -44.84716797 73.90136719 C-35.99537891 71.13651569 -27.12173808 68.45369907 -18.23364258 65.80810547 C-7.60145026 62.64033269 2.98556648 59.35456701 13.53881836 55.93286133 C29.86641549 50.64120281 29.86641549 50.64120281 34.51635742 51.37060547 C36.93763985 52.6346915 39.20369825 54.0704289 41.50463867 55.54248047 C44.93888707 57.62708261 48.46614294 59.37166944 52.07885742 61.12060547 C58.72504497 64.36538782 65.0737962 67.98064064 71.4140625 71.78393555 C76.50437072 74.82180501 81.65111598 77.55652564 87.00073242 80.11669922 C89.51635742 81.37060547 89.51635742 81.37060547 92.21948242 83.03076172 C94.36110029 84.53856248 94.36110029 84.53856248 96.51635742 84.37060547 C96.51635742 83.71060547 96.51635742 83.05060547 96.51635742 82.37060547 C94.51136724 80.89021369 94.51136724 80.89021369 91.89135742 79.37060547 C87.34787474 76.56296617 82.9674668 73.6211879 78.64135742 70.49560547 C74.19058923 67.28563184 69.7227523 64.10975026 65.20385742 60.99560547 C59.99341711 57.40263926 54.81116483 53.77179246 49.64135742 50.12060547 C48.58887817 49.37738037 48.58887817 49.37738037 47.51513672 48.61914062 C46.83749268 48.14009277 46.15984863 47.66104492 45.46166992 47.16748047 C44.798125 46.7040625 44.13458008 46.24064453 43.45092773 45.76318359 C42.1740981 44.84407251 40.92192947 43.8895692 39.69897461 42.89990234 C39.12050781 42.44164062 38.54204102 41.98337891 37.94604492 41.51123047 C37.45088379 41.09905273 36.95572266 40.686875 36.44555664 40.26220703 C31.27417501 37.87219365 25.74496898 39.6590835 20.60620117 41.31201172 Z M96.51635742 84.37060547 C97.50635742 85.36060547 98.49635742 86.35060547 99.51635742 87.37060547 C100.17635742 87.04060547 100.83635742 86.71060547 101.51635742 86.37060547 C99.04135742 85.38060547 99.04135742 85.38060547 96.51635742 84.37060547 Z M-7.48364258 123.37060547 C-7.48364258 124.03060547 -7.48364258 124.69060547 -7.48364258 125.37060547 C-8.04051758 125.55623047 -8.59739258 125.74185547 -9.17114258 125.93310547 C-16.08503737 130.23093196 -18.20065438 138.19410446 -20.04614258 145.64013672 C-22.07919402 158.328556 -21.30887705 172.859216 -13.79223633 183.63232422 C-13.36040039 184.20595703 -12.92856445 184.77958984 -12.48364258 185.37060547 C-11.72051758 186.42248047 -10.95739258 187.47435547 -10.17114258 188.55810547 C-2.47840077 196.60864922 6.41232675 199.12691211 17.27416992 199.49951172 C29.09546419 199.72918738 38.97004042 199.08957466 48.51635742 191.37060547 C51.20340209 188.22745728 53.44103022 184.94346991 55.51635742 181.37060547 C55.90823242 180.73380859 56.30010742 180.09701172 56.70385742 179.44091797 C57.78252108 176.6924 57.64922291 174.29364626 57.51635742 171.37060547 C54.55919335 170.53308386 51.60044442 169.70130516 48.64135742 168.87060547 C47.79959961 168.63212891 46.9578418 168.39365234 46.09057617 168.14794922 C45.28491211 167.92236328 44.47924805 167.69677734 43.64916992 167.46435547 C42.53372803 167.15014648 42.53372803 167.15014648 41.39575195 166.82958984 C39.51497916 166.29152324 39.51497916 166.29152324 37.51635742 166.37060547 C37.21342773 167.04607422 36.91049805 167.72154297 36.59838867 168.41748047 C32.36200856 177.43771136 32.36200856 177.43771136 27.51635742 180.37060547 C22.12913705 182.16634559 17.37918351 182.04247134 12.20385742 179.80810547 C7.923004 177.457833 6.9329624 174.95373922 5.51635742 170.37060547 C5.18635742 169.38060547 4.85635742 168.39060547 4.51635742 167.37060547 C4.2646727 164.31263605 4.28507454 161.25037336 4.26635742 158.18310547 C4.24573242 157.35746094 4.22510742 156.53181641 4.20385742 155.68115234 C4.1591247 148.58542375 5.28523796 142.99217083 10.01635742 137.43310547 C14.89071086 133.41176389 20.46888219 133.86517132 26.51635742 134.37060547 C31.63538933 136.61018193 34.04445364 139.4267979 36.51635742 144.37060547 C43.44635742 143.05060547 50.37635742 141.73060547 57.51635742 140.37060547 C55.6323329 133.77651965 54.59174658 131.36295719 50.51635742 126.37060547 C49.85635742 126.37060547 49.19635742 126.37060547 48.51635742 126.37060547 C48.02135742 124.88560547 48.02135742 124.88560547 47.51635742 123.37060547 C30.28516968 111.37285698 10.10817682 113.60760622 -7.48364258 123.37060547 Z M-29.66015625 136.20922852 C-30.52674362 136.39329758 -31.39333099 136.57736664 -32.28617859 136.76701355 C-33.23177139 136.97006607 -34.1773642 137.17311859 -35.15161133 137.38232422 C-36.13744705 137.5924263 -37.12328278 137.80252838 -38.13899231 138.01899719 C-41.31678406 138.69680302 -44.49395603 139.37746908 -47.67114258 140.05810547 C-49.73165187 140.49773476 -51.79219838 140.93718971 -53.8527832 141.37646484 C-62.22356771 143.16303039 -70.59310935 144.95463333 -78.95483398 146.78320312 C-79.99698563 147.01094925 -81.03913727 147.23869537 -82.11286926 147.4733429 C-84.08899565 147.90585406 -86.06483415 148.33968349 -88.04032898 148.77507019 C-92.50853543 149.75350495 -96.95989865 150.67785588 -101.48364258 151.37060547 C-101.48364258 151.70060547 -101.48364258 152.03060547 -101.48364258 152.37060547 C-98.51364258 152.70060547 -95.54364258 153.03060547 -92.48364258 153.37060547 C-92.15364258 155.68060547 -91.82364258 157.99060547 -91.48364258 160.37060547 C-82.27958185 159.31826405 -73.39557138 157.52258056 -64.38916016 155.40356445 C-55.92597481 153.42634638 -47.41696765 151.7388261 -38.87109375 150.15844727 C-33.36348136 149.10233365 -28.53268608 147.82766461 -23.48364258 145.37060547 C-23.48364258 142.07060547 -23.48364258 138.77060547 -23.48364258 135.37060547 C-25.67167081 135.37060547 -27.51882257 135.75186989 -29.66015625 136.20922852 Z M67.51635742 141.37060547 C67.35334238 142.78340253 67.23747772 144.20168675 67.14135742 145.62060547 C67.07174805 146.40951172 67.00213867 147.19841797 66.93041992 148.01123047 C67.33198055 150.6295639 67.33198055 150.6295639 69.98120117 152.40185547 C73.98702194 154.77279179 78.22442755 156.68810505 82.45385742 158.62060547 C89.42128916 161.8429072 96.22927292 165.23866547 102.88330078 169.07080078 C104.38880147 169.91113964 105.94978957 170.6504896 107.51635742 171.37060547 C108.50635742 171.04060547 109.49635742 170.71060547 110.51635742 170.37060547 C110.49407263 167.33987437 110.45909178 165.19680131 109.51635742 162.37060547 C107.30822572 160.23012393 104.7412091 159.11735491 101.95385742 157.87060547 C101.1960498 157.50169189 100.43824219 157.13277832 99.6574707 156.75268555 C98.07613198 155.98495788 96.48871936 155.2296267 94.89575195 154.48632812 C91.88371439 153.07395262 88.91328929 151.58586245 85.94238281 150.08935547 C84.61769323 149.42330514 83.29022368 148.7627424 81.95947266 148.10888672 C78.79712493 146.55244793 75.71978148 144.9265658 72.68041992 143.14013672 C69.82964077 141.20790176 69.82964077 141.20790176 67.51635742 141.37060547 Z M-32.40942383 164.45654297 C-33.14751785 164.59136078 -33.88561188 164.72617859 -34.64607239 164.86508179 C-46.35951051 167.04419889 -58.01176851 169.54750952 -69.67114258 171.99560547 C-73.27545893 172.75075423 -76.87993323 173.50513055 -80.48469543 174.25814819 C-82.7098219 174.72312431 -84.93467989 175.18938765 -87.15922546 175.65713501 C-91.92223155 176.65384639 -96.67230596 177.63055863 -101.48364258 178.37060547 C-101.48364258 178.70060547 -101.48364258 179.03060547 -101.48364258 179.37060547 C-98.51364258 179.70060547 -95.54364258 180.03060547 -92.48364258 180.37060547 C-92.15364258 183.01060547 -91.82364258 185.65060547 -91.48364258 188.37060547 C-81.19828944 187.13439424 -71.06584451 185.45623239 -60.9050293 183.44873047 C-58.61853308 182.99755707 -56.33054333 182.5546797 -54.04223633 182.11279297 C-43.79294535 180.11624195 -33.63082871 177.83223468 -23.48364258 175.37060547 C-23.48364258 171.74060547 -23.48364258 168.11060547 -23.48364258 164.37060547 C-26.49403021 162.86541165 -29.21991461 163.85574886 -32.40942383 164.45654297 Z M67.51635742 169.37060547 C67.51635742 172.67060547 67.51635742 175.97060547 67.51635742 179.37060547 C68.16483643 179.66717041 68.81331543 179.96373535 69.48144531 180.26928711 C72.51418434 181.65664103 75.54657843 183.04474635 78.57885742 184.43310547 C79.669646 184.93245605 80.76043457 185.43180664 81.88427734 185.94628906 C89.20382268 189.30074263 96.50554288 192.68979137 103.78588867 196.12841797 C106.52179031 197.43075327 106.52179031 197.43075327 109.51635742 198.37060547 C109.51635742 195.07060547 109.51635742 191.77060547 109.51635742 188.37060547 C108.65993652 187.97268799 107.80351562 187.57477051 106.92114258 187.16479492 C103.69632411 185.66561362 100.4721156 184.16513503 97.24829102 182.66381836 C95.86180869 182.01845341 94.47509602 181.37358308 93.08813477 180.72924805 C91.0765972 179.79464558 89.06577438 178.85853123 87.05541992 177.92138672 C86.40269104 177.61725861 85.74996216 177.31313049 85.07745361 176.99978638 C80.45001753 174.83348642 75.88144686 172.56865513 71.34985352 170.20727539 C69.54900088 169.23222408 69.54900088 169.23222408 67.51635742 169.37060547 Z M-19.48364258 211.37060547 C-19.48364258 235.46060547 -19.48364258 259.55060547 -19.48364258 284.37060547 C-13.87364258 284.37060547 -8.26364258 284.37060547 -2.48364258 284.37060547 C-2.15364258 266.22060547 -1.82364258 248.07060547 -1.48364258 229.37060547 C1.88691281 239.48227165 1.88691281 239.48227165 3.16479492 244.74169922 C3.44572998 245.88541992 3.72666504 247.02914062 4.01611328 248.20751953 C4.30494385 249.39571289 4.59377441 250.58390625 4.89135742 251.80810547 C7.57862946 262.72331327 10.4405647 273.55872801 13.51635742 284.37060547 C18.79635742 284.37060547 24.07635742 284.37060547 29.51635742 284.37060547 C32.1065053 275.34686448 34.55303923 266.30540752 36.81713867 257.19482422 C37.0179454 256.38689423 37.21875214 255.57896423 37.42564392 254.74655151 C38.45037321 250.61592512 39.4685784 246.48376753 40.48095703 242.35009766 C40.86251388 240.80353956 41.24410424 239.25698972 41.62573242 237.71044922 C41.80159378 236.98516525 41.97745514 236.25988129 42.15864563 235.51261902 C43.40339129 230.4835716 43.40339129 230.4835716 44.51635742 229.37060547 C45.43099149 232.48618837 45.63790704 235.26456175 45.62988281 238.50634766 C45.62976952 240.03748199 45.62976952 240.03748199 45.62965393 241.59954834 C45.62449265 242.69446594 45.61933136 243.78938354 45.61401367 244.91748047 C45.61259872 246.04381897 45.61118378 247.17015747 45.60972595 248.33062744 C45.60412942 251.92731382 45.59157752 255.52393791 45.57885742 259.12060547 C45.57384198 261.55940665 45.56927915 263.99820881 45.56518555 266.43701172 C45.55416111 272.4149003 45.53689882 278.39274232 45.51635742 284.37060547 C51.12635742 284.37060547 56.73635742 284.37060547 62.51635742 284.37060547 C62.51635742 260.28060547 62.51635742 236.19060547 62.51635742 211.37060547 C52.94635742 211.37060547 43.37635742 211.37060547 33.51635742 211.37060547 C32.62948242 214.93873047 31.74260742 218.50685547 30.82885742 222.18310547 C29.99940917 225.49589495 29.16674555 228.80785527 28.33325195 232.11962891 C27.81105167 234.19781748 27.29098413 236.27654389 26.77368164 238.35595703 C26.11255783 241.00876829 25.44104338 243.65871631 24.76635742 246.30810547 C24.46918823 247.51333862 24.46918823 247.51333862 24.16601562 248.74291992 C23.67813297 250.63588795 23.10563089 252.50670788 22.51635742 254.37060547 C21.52635742 254.86560547 21.52635742 254.86560547 20.51635742 255.37060547 C20.30881836 254.37287109 20.1012793 253.37513672 19.88745117 252.34716797 C16.94767886 238.5420234 13.24223035 224.98437194 9.51635742 211.37060547 C-0.05364258 211.37060547 -9.62364258 211.37060547 -19.48364258 211.37060547 Z M-44.48364258 228.37060547 C-44.81364258 229.69060547 -45.14364258 231.01060547 -45.48364258 232.37060547 C-44.49364258 232.37060547 -43.50364258 232.37060547 -42.48364258 232.37060547 C-42.81364258 231.05060547 -43.14364258 229.73060547 -43.48364258 228.37060547 C-43.81364258 228.37060547 -44.14364258 228.37060547 -44.48364258 228.37060547 Z M-55.48364258 230.37060547 C-55.81364258 231.69060547 -56.14364258 233.01060547 -56.48364258 234.37060547 C-55.49364258 234.37060547 -54.50364258 234.37060547 -53.48364258 234.37060547 C-53.81364258 233.05060547 -54.14364258 231.73060547 -54.48364258 230.37060547 C-54.81364258 230.37060547 -55.14364258 230.37060547 -55.48364258 230.37060547 Z M72.51635742 230.37060547 C73.51635742 234.37060547 73.51635742 234.37060547 73.51635742 234.37060547 Z M-66.48364258 232.37060547 C-66.48364258 233.36060547 -66.48364258 234.35060547 -66.48364258 235.37060547 C-65.49364258 235.37060547 -64.50364258 235.37060547 -63.48364258 235.37060547 C-63.48364258 234.38060547 -63.48364258 233.39060547 -63.48364258 232.37060547 C-64.47364258 232.37060547 -65.46364258 232.37060547 -66.48364258 232.37060547 Z M80.51635742 233.37060547 C80.18635742 234.36060547 79.85635742 235.35060547 79.51635742 236.37060547 C80.50635742 236.37060547 81.49635742 236.37060547 82.51635742 236.37060547 C82.18635742 235.38060547 81.85635742 234.39060547 81.51635742 233.37060547 C81.18635742 233.37060547 80.85635742 233.37060547 80.51635742 233.37060547 Z M-76.48364258 234.37060547 C-76.81364258 235.03060547 -77.14364258 235.69060547 -77.48364258 236.37060547 C-77.15364258 237.03060547 -76.82364258 237.69060547 -76.48364258 238.37060547 C-75.49364258 238.04060547 -74.50364258 237.71060547 -73.48364258 237.37060547 C-73.81364258 236.38060547 -74.14364258 235.39060547 -74.48364258 234.37060547 C-75.14364258 234.37060547 -75.80364258 234.37060547 -76.48364258 234.37060547 Z M89.51635742 236.37060547 C89.18635742 237.36060547 88.85635742 238.35060547 88.51635742 239.37060547 C89.50635742 239.37060547 90.49635742 239.37060547 91.51635742 239.37060547 C91.18635742 238.38060547 90.85635742 237.39060547 90.51635742 236.37060547 C90.18635742 236.37060547 89.85635742 236.37060547 89.51635742 236.37060547 Z M97.51635742 239.37060547 C97.51635742 240.36060547 97.51635742 241.35060547 97.51635742 242.37060547 C98.50635742 242.37060547 99.49635742 242.37060547 100.51635742 242.37060547 C100.51635742 241.38060547 100.51635742 240.39060547 100.51635742 239.37060547 C99.52635742 239.37060547 98.53635742 239.37060547 97.51635742 239.37060547 Z M-34.71020508 277.28857422 C-35.80261757 277.43474182 -35.80261757 277.43474182 -36.917099 277.5838623 C-39.31465702 277.90588625 -41.71170064 278.23152876 -44.10864258 278.55810547 C-44.92533417 278.66909576 -45.74202576 278.78008606 -46.58346558 278.8944397 C-58.02572314 280.45271076 -69.46324751 282.04590287 -80.88641357 283.73892212 C-82.32004153 283.950796 -83.75400221 284.16043119 -85.18829346 284.36776733 C-87.18489559 284.6573591 -89.18001654 284.95710819 -91.17504883 285.25732422 C-92.30112549 285.42449951 -93.42720215 285.5916748 -94.58740234 285.76391602 C-97.22466895 286.31635701 -99.16657869 287.02799782 -101.48364258 288.37060547 C-99.78208008 288.86560547 -99.78208008 288.86560547 -98.04614258 289.37060547 C-96.11254883 289.93310547 -96.11254883 289.93310547 -94.48364258 291.37060547 C-93.95353485 294.02292106 -93.75807117 296.67578734 -93.48364258 299.37060547 C-80.33033338 297.85368934 -67.25401921 295.87531792 -54.16967773 293.85668945 C-50.5679256 293.30183294 -46.96527771 292.75306426 -43.36254883 292.20458984 C-41.0721282 291.85274096 -38.78176151 291.50054069 -36.49145508 291.14794922 C-35.414534 290.98439438 -34.33761292 290.82083954 -33.22805786 290.65232849 C-32.23877289 290.49869339 -31.24948792 290.34505829 -30.23022461 290.18676758 C-29.3591507 290.05290146 -28.48807678 289.91903534 -27.59060669 289.78111267 C-25.43783635 289.45933219 -25.43783635 289.45933219 -23.48364258 288.37060547 C-23.45666069 286.74569593 -23.43725501 285.12065913 -23.42114258 283.49560547 C-23.40954102 282.59068359 -23.39793945 281.68576172 -23.38598633 280.75341797 C-23.32115 278.35374697 -23.32115 278.35374697 -24.48364258 276.37060547 C-27.94777743 276.37060547 -31.28575652 276.82398437 -34.71020508 277.28857422 Z M67.51635742 279.37060547 C67.47554959 281.37018911 67.47381386 283.37105801 67.51635742 285.37060547 C72.74644261 288.05378419 77.97379105 290.46472626 83.44604492 292.60498047 C84.16245148 292.88786926 84.87885803 293.17075806 85.61697388 293.46221924 C87.11365311 294.05212912 88.61104697 294.64022893 90.10913086 295.2265625 C92.40847188 296.12730991 94.70469579 297.03569142 97.00073242 297.94482422 C98.4614913 298.51949723 99.92242262 299.09373213 101.38354492 299.66748047 C102.06996063 299.93929138 102.75637634 300.21110229 103.46359253 300.4911499 C106.88784148 301.89833083 106.88784148 301.89833083 110.51635742 302.37060547 C110.51635742 299.73060547 110.51635742 297.09060547 110.51635742 294.37060547 C101.63420266 289.50879444 92.2046038 285.97409218 82.79663086 282.28662109 C80.70473615 281.44627966 78.64358855 280.55732628 76.58276367 279.64404297 C71.88869415 277.66287351 71.88869415 277.66287351 67.51635742 279.37060547 Z M-12.48364258 292.37060547 C-12.48364258 319.10060547 -12.48364258 345.83060547 -12.48364258 373.37060547 C-4.33676758 373.43248047 3.81010742 373.49435547 12.20385742 373.55810547 C14.74806396 373.58541748 17.29227051 373.61272949 19.91357422 373.64086914 C38.66955832 374.42859493 38.66955832 374.42859493 55.57885742 367.62060547 C60.75675741 362.32678235 62.75421953 358.33143227 63.07885742 350.93310547 C62.86438014 344.90698579 61.81682999 340.70194267 57.51635742 336.37060547 C55.53229326 334.89992756 53.55686006 333.64729658 51.38354492 332.47607422 C49.43155181 331.32039629 48.04903676 330.03180139 46.51635742 328.37060547 C47.23823242 328.14373047 47.96010742 327.91685547 48.70385742 327.68310547 C52.85978067 325.74367462 55.5217286 323.07568345 57.82885742 319.12060547 C59.51223828 312.38708203 59.06459912 306.43695418 55.51635742 300.37060547 C51.06725648 295.49457059 46.61341755 292.63801884 39.85289001 292.19676208 C36.53324828 292.13916262 33.21917425 292.14592877 29.89916992 292.17529297 C28.82401123 292.17730713 27.74885254 292.17932129 26.64111328 292.18139648 C22.641151 292.191827 18.64124974 292.21974952 14.64135742 292.24560547 C5.69010742 292.28685547 -3.26114258 292.32810547 -12.48364258 292.37060547 Z M-46.35864258 307.12060547 C-55.01102848 308.38511491 -63.65509162 309.53557846 -72.35083008 310.45654297 C-73.1744101 310.5442395 -73.99799011 310.63193604 -74.8465271 310.72229004 C-78.91818515 311.15314697 -82.99080116 311.57087674 -87.06518555 311.97509766 C-88.55365764 312.13010169 -90.04210304 312.28536222 -91.53051758 312.44091797 C-92.22080048 312.50540131 -92.91108337 312.56988464 -93.62228394 312.63632202 C-95.25182821 312.81056613 -96.87057042 313.08116845 -98.48364258 313.37060547 C-98.81364258 314.03060547 -99.14364258 314.69060547 -99.48364258 315.37060547 C-97.00864258 315.86560547 -97.00864258 315.86560547 -94.48364258 316.37060547 C-93.82364258 319.34060547 -93.16364258 322.31060547 -92.48364258 325.37060547 C-77.37136385 324.25794319 -62.34073349 322.5972395 -47.29614258 320.80810547 C-46.34942688 320.69632965 -45.40271118 320.58455383 -44.42730713 320.46939087 C-41.70219473 320.14674771 -38.97760319 319.82005524 -36.25317383 319.49169922 C-35.42798752 319.39382111 -34.60280121 319.29594299 -33.75260925 319.19509888 C-30.24265295 318.76666259 -26.92054606 318.22983134 -23.48364258 317.37060547 C-23.48364258 313.41060547 -23.48364258 309.45060547 -23.48364258 305.37060547 C-31.29978067 305.16683278 -38.63812899 305.95275155 -46.35864258 307.12060547 Z M67.51635742 305.37060547 C67.51635742 308.34060547 67.51635742 311.31060547 67.51635742 314.37060547 C74.18702636 317.92548094 81.11736411 320.65342347 88.18041992 323.31713867 C90.14679475 324.06016004 92.1089556 324.81361656 94.07104492 325.56787109 C95.33642974 326.04832186 96.60204698 326.52816103 97.86791992 327.00732422 C99.00052246 327.43746826 100.133125 327.8676123 101.30004883 328.31079102 C104.38130595 329.3261043 107.3069692 329.93312699 110.51635742 330.37060547 C110.51635742 327.73060547 110.51635742 325.09060547 110.51635742 322.37060547 C102.63281135 318.19743396 94.51092348 314.8528252 86.20385742 311.62060547 C84.94266181 311.12223109 83.68159335 310.62353484 82.4206543 310.12451172 C75.12374131 307.22120332 75.12374131 307.22120332 67.51635742 305.37060547 Z M-32.72973633 333.92138672 C-33.55159424 334.04126953 -34.37345215 334.16115234 -35.22021484 334.28466797 C-36.111521 334.41615234 -37.00282715 334.54763672 -37.92114258 334.68310547 C-47.10986471 335.99410786 -56.30690112 336.98956338 -65.54614258 337.87060547 C-77.58708439 339.02289996 -89.53247027 340.51065481 -101.48364258 342.37060547 C-101.48364258 342.70060547 -101.48364258 343.03060547 -101.48364258 343.37060547 C-99.17364258 343.70060547 -96.86364258 344.03060547 -94.48364258 344.37060547 C-94.15364258 347.34060547 -93.82364258 350.31060547 -93.48364258 353.37060547 C-70.06046413 352.89978781 -46.7945647 350.56376774 -23.48364258 348.37060547 C-23.48364258 343.42060547 -23.48364258 338.47060547 -23.48364258 333.37060547 C-26.80769386 333.37060547 -29.52278362 333.43621823 -32.72973633 333.92138672 Z M67.51635742 335.37060547 C67.51635742 339.66060547 67.51635742 343.95060547 67.51635742 348.37060547 C72.85220604 350.22986039 78.19076099 352.08104129 83.53198242 353.92480469 C85.34850423 354.55312661 87.16426758 355.18364578 88.97924805 355.81640625 C91.58861006 356.72568612 94.20060012 357.62702207 96.81323242 358.52685547 C97.62379089 358.8112146 98.43434937 359.09557373 99.26947021 359.3885498 C100.02995667 359.64881958 100.79044312 359.90908936 101.57397461 360.17724609 C102.24015808 360.4081897 102.90634155 360.6391333 103.5927124 360.8770752 C105.83111904 361.53627974 105.83111904 361.53627974 109.51635742 361.37060547 C109.51635742 357.74060547 109.51635742 354.11060547 109.51635742 350.37060547 C95.74167139 344.71636753 81.84315535 339.4639763 67.51635742 335.37060547 Z M-42.67504883 359.61279297 C-43.73795639 359.74122589 -44.80086395 359.86965881 -45.89598083 360.00198364 C-49.27992571 360.41208082 -52.66301306 360.82884139 -56.04614258 361.24560547 C-58.29153479 361.51815723 -60.53697712 361.79029637 -62.7824707 362.06201172 C-68.08489447 362.70527113 -73.38557606 363.36163908 -78.68560791 364.02429199 C-81.22656485 364.33878689 -83.76853641 364.64225761 -86.3112793 364.94189453 C-87.66955406 365.10791618 -89.02779336 365.27422847 -90.38598633 365.44091797 C-92.07776001 365.64225342 -92.07776001 365.64225342 -93.80371094 365.84765625 C-96.69479439 366.23326368 -96.69479439 366.23326368 -99.48364258 368.37060547 C-98.16364258 368.70060547 -96.84364258 369.03060547 -95.48364258 369.37060547 C-94.82364258 372.34060547 -94.16364258 375.31060547 -93.48364258 378.37060547 C-70.14644339 376.75466675 -46.81031806 375.13306539 -23.48364258 373.37060547 C-23.48364258 368.42060547 -23.48364258 363.47060547 -23.48364258 358.37060547 C-29.98272808 358.21773106 -36.22935878 358.81156517 -42.67504883 359.61279297 Z M67.51635742 360.37060547 C67.51635742 364.66060547 67.51635742 368.95060547 67.51635742 373.37060547 C73.17513481 375.22574322 78.83514214 377.07706001 84.49633789 378.92480469 C86.42311579 379.55428163 88.34954983 380.18481212 90.27563477 380.81640625 C93.03987925 381.72264595 95.80532732 382.62512308 98.57104492 383.52685547 C99.43567352 383.8112146 100.30030212 384.09557373 101.19113159 384.3885498 C101.99181061 384.64881958 102.79248962 384.90908936 103.61743164 385.17724609 C104.32358612 385.4081897 105.0297406 385.6391333 105.7572937 385.8770752 C107.53280073 386.46065 107.53280073 386.46065 109.51635742 386.37060547 C109.51635742 382.74060547 109.51635742 379.11060547 109.51635742 375.37060547 C104.04939385 372.49813308 98.71169367 370.2841013 92.82885742 368.43310547 C86.11582527 366.26841849 79.55745004 363.90836722 73.02026367 361.25341797 C70.48730417 360.20434934 70.48730417 360.20434934 67.51635742 360.37060547 Z M-24.74615479 383.63238525 C-47.41117024 384.88678421 -69.95277878 386.55424749 -92.48364258 389.37060547 C-92.81364258 404.88060547 -93.14364258 420.39060547 -93.48364258 436.37060547 C-98.43364258 436.86560547 -98.43364258 436.86560547 -103.48364258 437.37060547 C-103.48364258 438.03060547 -103.48364258 438.69060547 -103.48364258 439.37060547 C-101.7296846 440.92081622 -101.7296846 440.92081622 -99.54614258 442.43310547 C-95.50895903 445.34528901 -95.50895903 445.34528901 -94.48364258 446.37060547 C-89.930283 446.65296596 -85.35748046 446.56322765 -80.79614258 446.55810547 C-79.68778549 446.55869461 -79.68778549 446.55869461 -78.55703735 446.55929565 C-55.18373547 446.54489511 -31.82163342 445.54750689 -8.46542358 444.73728943 C1.22041062 444.40489126 10.90620383 444.14284883 20.59512329 443.92211914 C34.45261382 443.60254207 48.29550066 443.08454846 62.14135742 442.43310547 C62.97486725 442.39540039 63.80837708 442.35769531 64.66714478 442.31884766 C77.00108055 441.75393691 89.24182062 440.70027935 101.51635742 439.37060547 C101.51635742 439.04060547 101.51635742 438.71060547 101.51635742 438.37060547 C97.07962901 437.61601229 92.64207617 436.86637884 88.20385742 436.12060547 C87.53574036 436.00833618 86.86762329 435.89606689 86.17926025 435.78039551 C75.12093282 433.92726599 64.04838572 432.21749201 52.94873047 430.62744141 C51.36958862 430.39976074 51.36958862 430.39976074 49.75854492 430.16748047 C48.83928223 430.03696289 47.92001953 429.90644531 46.97290039 429.77197266 C44.51635742 429.37060547 44.51635742 429.37060547 42.65646362 428.85360718 C40.31142454 428.32435406 38.2214118 428.2435618 35.81811523 428.24121094 C34.88904358 428.23805878 33.95997192 428.23490662 33.00274658 428.23165894 C31.50128082 428.23469528 31.50128082 428.23469528 29.96948242 428.23779297 C28.40348297 428.23635788 28.40348297 428.23635788 26.80584717 428.2348938 C24.59004659 428.234213 22.37424402 428.23606029 20.15844727 428.24023438 C16.82067169 428.24551947 13.4830347 428.24031978 10.14526367 428.23388672 C-0.1798963 428.23055262 -10.42369456 428.36525287 -20.72387695 429.11669922 C-27.76050691 429.5919002 -34.80946661 429.74515442 -41.85864258 429.93310547 C-42.61835358 429.95428436 -43.37806458 429.97546326 -44.16079712 429.99728394 C-55.27270559 430.30611452 -66.36671837 430.4725956 -77.48364258 430.37060547 C-77.48364258 419.81060547 -77.48364258 409.25060547 -77.48364258 398.37060547 C-67.43598099 397.70076136 -57.47515932 397.18027854 -47.42114258 396.93310547 C-36.77356794 396.647918 -26.17168543 396.14196846 -15.54614258 395.37060547 C-5.41342236 394.66241548 4.71980277 394.0067067 14.868927 393.58886719 C16.2712192 393.52796641 17.67320169 393.4592997 19.07467651 393.38183594 C29.0460341 392.84002822 37.08965716 394.17795226 46.51635742 397.37060547 C48.73375585 398.05598316 50.95251133 398.73698592 53.17260742 399.41357422 C55.45421676 400.12727023 57.73545555 400.84215171 60.01635742 401.55810547 C70.68627779 404.88846287 81.37243386 408.15949744 92.07885742 411.37060547 C92.72918945 411.56600922 93.37952148 411.76141296 94.04956055 411.96273804 C99.77760464 413.68479477 99.77760464 413.68479477 105.51635742 415.37060547 C106.27811279 415.59232422 107.03986816 415.81404297 107.82470703 416.04248047 C108.38295166 416.15076172 108.94119629 416.25904297 109.51635742 416.37060547 C110.7490309 415.36224485 110.7490309 415.36224485 110.61401367 413.30419922 C110.60241211 412.48048828 110.59081055 411.65677734 110.57885742 410.80810547 C110.55802409 409.3289388 110.53719076 407.84977214 110.51635742 406.37060547 C101.00205769 402.33995986 91.1959667 399.18958099 81.38952637 395.96374512 C78.96277491 395.16531158 76.53633599 394.36593899 74.11010742 393.56591797 C73.30337585 393.30016968 72.49664429 393.03442139 71.66546631 392.76062012 C66.43405286 391.02914136 61.23476522 389.22221249 56.04760742 387.36279297 C28.34703072 377.49329413 4.10542151 382.04667476 -24.74615479 383.63238525 Z " fill="#FFFFFF" transform="translate(251.483642578125,-0.37060546875)"/>
<path d="M0 0 C0.74765625 -0.020625 1.4953125 -0.04125 2.265625 -0.0625 C7.55026059 -0.09932673 11.21186781 0.71078807 15.875 3.25 C18.37531654 7.00047482 18.41103554 8.80856266 17.875 13.25 C15.33362841 16.40954305 13.72877341 17.96540886 9.875 19.25 C8.46675107 19.33021999 7.05502769 19.35765977 5.64453125 19.34765625 C4.84208984 19.34443359 4.03964844 19.34121094 3.21289062 19.33789062 C2.37951172 19.32951172 1.54613281 19.32113281 0.6875 19.3125 C-0.15748047 19.30798828 -1.00246094 19.30347656 -1.87304688 19.29882812 C-3.95706155 19.28705403 -6.04103977 19.2691189 -8.125 19.25 C-9.71196844 16.07606311 -9.2681447 12.66825795 -9.25 9.1875 C-9.25386719 8.44177734 -9.25773437 7.69605469 -9.26171875 6.92773438 C-9.24748681 -0.90694975 -7.09272363 0.04744297 0 0 Z " fill="#FFFFFF" transform="translate(272.125,337.75)"/>
<path d="M0 0 C3.06398451 -0.13530844 6.12197126 -0.2342407 9.1875 -0.3125 C10.05181641 -0.35439453 10.91613281 -0.39628906 11.80664062 -0.43945312 C16.3333231 -0.52617118 18.34578465 -0.48962241 22.07421875 2.30078125 C24 5 24 5 24.625 8.5 C23.81839953 13.01696263 22.64144719 14.2384912 19 17 C15.89009742 17.62008379 12.90704607 17.52032434 9.75 17.375 C8.92242187 17.36082031 8.09484375 17.34664063 7.2421875 17.33203125 C1.18303571 17.18303571 1.18303571 17.18303571 0 16 C-0.07319621 13.30345146 -0.09242537 10.63308542 -0.0625 7.9375 C-0.05798828 7.17888672 -0.05347656 6.42027344 -0.04882812 5.63867188 C-0.0370068 3.75908129 -0.01907078 1.87953101 0 0 Z " fill="#FFFFFF" transform="translate(263,307)"/>
</svg>
